<?xml version="1.0" encoding="utf-8" ?><svg xmlns="http://www.w3.org/2000/svg" xmlns:xlink="http://www.w3.org/1999/xlink" width="2403" height="934" viewBox="0 0 2403 934"><path fill="#59C3D1" transform="scale(1.04744 1.04744)" d="M406.453 337.756C409.06 331.393 412.945 314.587 415.335 306.499C421.933 284.579 428.83 262.751 436.025 241.02C441.227 225.534 447.805 211.792 454.32 197.052C481.988 134.454 527.454 70.3809 592.904 43.2411C650.098 19.5247 695.052 24.2341 751.355 47.5642C804.076 67.0625 833.23 102.478 854.481 153.37C878.595 211.119 884.431 275.074 860.12 334.235C832.23 402.107 769.417 444.124 708.689 479.611C696.708 486.618 684.599 493.404 672.368 499.967C649.629 512.34 585.658 542.205 594.712 579.074C595.859 583.741 602.189 587.945 606.246 589.403C648.83 606.636 737.334 564.726 765.279 613.318C767.89 619.093 766.38 626.095 764.165 631.433C757.895 646.54 741.475 657.31 726.584 662.388C649.93 688.526 531.893 685.952 498.247 597.208C486.816 567.51 487.665 534.484 500.607 505.412C546.05 404.907 704.525 390.564 755.528 292.966C792.406 222.399 710.254 85.0307 622.237 122.453C579.835 138.765 545.219 192.811 527.748 233.155C483.98 334.217 470.396 455.694 458.272 564.729C455.087 595.534 452.274 626.377 449.832 657.249C448.588 671.849 447.092 686.406 446.597 701.089C445.838 723.335 447.664 744.1 442.883 766.244C438.899 783.777 431.716 805.08 413.501 812.291C399.407 817.871 382.944 808.991 374.199 797.97C358.363 778.012 348.119 747.445 342.524 722.628C327.778 657.222 323.94 590.05 312.632 524.071C312.073 520.779 311.623 517.438 311.099 514.139C306.642 484.155 303.494 453.989 299.822 423.909C292.917 367.352 285.43 307.093 308.765 253.129C315.124 238.572 329.956 231.041 344.955 239.039C380.061 259.675 388.677 305.041 397.56 341.647C398.264 345.512 398.747 351.314 401.092 354.058L402.606 353.7C404.868 349.641 405.643 342.549 406.453 337.756Z"/><path fill="#59C3D1" transform="scale(1.04744 1.04744)" d="M1138.5 251.375C1182.8 247.277 1220.16 259.699 1234.85 305.068C1247.24 343.356 1237.84 400.021 1218.84 435.334C1164.97 535.436 1038.1 592.446 935.936 626.209C934.912 674.913 955.258 719.389 1008.76 719.795C1082.64 720.356 1096.24 638.439 1156.46 618.321C1163.41 615.999 1174.87 618.762 1180.66 623.298C1203.17 642.527 1185.84 683.884 1173.53 702.052C1170.09 708.525 1162.97 718.139 1158.37 724.027C1120.28 773.301 1064.15 805.401 1002.37 813.247C963.77 817.896 926.106 814.119 895.336 788.961C855.846 757.39 830.445 709.002 825.678 658.522C810.184 494.469 973.86 270.978 1138.5 251.375ZM969.058 524.695L981.772 519.836C1041.55 493.381 1113.87 456.306 1140.84 393.103C1146.38 380.103 1149.92 364.329 1130.1 366.042C1057.57 395.342 1003.7 455.88 969.058 524.695Z"/><path fill="#59C3D1" transform="scale(1.04744 1.04744)" d="M1401.44 36.3081C1402.84 36.1017 1404.25 36.0021 1405.67 36.0101C1414.9 36.0048 1423.92 40.4893 1430.34 46.9406C1459.06 75.8107 1458.46 193.977 1458.48 235.915C1498.29 217.844 1539.65 188.86 1574.58 162.805C1604.72 140.33 1635.82 100.906 1677.9 104.804C1706.24 107.431 1701.46 147.843 1689.86 164.58C1661.32 202.333 1622.8 230.246 1586.6 260.035C1544.4 294.752 1501.62 327.848 1457.4 359.935C1457.08 372.171 1456.69 384.405 1456.22 396.636C1485.45 422.54 1518.72 457.445 1545.77 485.659C1585.86 527.041 1625.43 568.931 1664.45 611.318C1698.01 647.259 1752.52 699.423 1777.86 739.182C1789.95 760.023 1804.85 786.559 1788.65 809.071C1751.09 832.398 1707.2 778.833 1684.93 754.755L1628.25 692.581C1580.99 641.43 1505.72 568.727 1449.86 527.391C1445.95 548.611 1442.64 569.939 1439.94 591.348C1436.45 617.6 1433.57 656.755 1414.09 675.016C1387.16 700.258 1362.02 670.139 1357.77 643.024C1353.96 618.803 1355.58 601.888 1355.45 578.552C1355.23 539.116 1358.07 500.145 1358.63 461.114C1323.68 441.995 1262 393.541 1280.86 347.36C1294.87 313.048 1331.26 298.233 1362.9 284.669C1362.64 243.746 1365.86 197.858 1367.36 156.459C1368.44 126.608 1367.81 91.113 1376.45 62.9412C1380.72 49.0253 1388.92 42.5079 1401.44 36.3081Z"/><path fill="#59C3D1" transform="scale(1.04744 1.04744)" d="M2084.22 268.35C2085.04 268.296 2085.86 268.25 2086.69 268.212C2111.69 267.079 2132.38 281.263 2131.27 308.284C2130.37 330.419 2127.46 352.505 2125.19 374.559L2113.11 495.145C2104.98 578.616 2100.17 658.943 2106.09 742.608C2106.37 762.634 2106.25 790.568 2092.28 806.392C2080.56 817.929 2058.7 815.237 2048.08 803.878C2039.64 794.854 2033.73 783.343 2030.35 771.766C2019.33 734.113 2019.29 692.793 2018.93 654.067C2011.79 665.914 2006.41 679.14 1999.98 691.405C1992.66 705.913 1982.78 722.194 1974.55 735.664C1924.72 816.95 1854.1 805.307 1818.09 720.664C1810.76 703.442 1803.47 688.646 1799.12 668.707C1798.44 666.274 1797.84 663.822 1797.31 661.353C1783.65 600.05 1778.13 535.21 1775.92 472.51C1774.92 444.038 1768.63 395.45 1784.31 371.078C1789.67 362.832 1798.07 357.041 1807.69 354.972C1826.41 351.131 1846.76 366.885 1850.27 384.471C1864 453.2 1861.02 524.954 1875.85 593.97C1880.31 621.439 1901.35 696.314 1932.7 638.27C1963.02 582.121 1982.56 514.613 2001.17 453.543L2020.55 391.604C2031.25 356.233 2039.52 316.624 2058.14 283.974C2063.99 273.715 2073.51 270.781 2084.22 268.35Z"/><path fill="#FEFEFE" fill-opacity="0.086274512" transform="scale(1.04744 1.04744)" d="M397.56 341.647L399.976 344.454C403.545 341.823 403.857 341.409 406.453 337.756C405.643 342.549 404.868 349.641 402.606 353.7L401.092 354.058C398.747 351.314 398.264 345.512 397.56 341.647Z"/></svg>